<svg width="466" height="408" viewBox="0 0 466 408" fill="none" xmlns="http://www.w3.org/2000/svg">
<path d="M278.115 128.403C386.234 190.755 446.297 225.398 458.311 232.327C461.813 234.345 463.022 238.818 461.005 242.323C460.357 243.445 459.432 244.37 458.311 245.019C432.892 259.619 229.512 376.438 204.093 391.039C197.926 394.58 190.361 394.66 184.121 391.257C166.588 381.706 26.3436 305.264 8.81762 295.705C5.26437 293.775 3.95375 289.33 5.88328 285.775C6.52403 284.595 7.48515 283.611 8.65015 282.933C26.7805 272.435 117.425 219.948 280.59 125.475" fill="#ACF4E6"/>
<path d="M360.386 253.987C325.232 266.548 305.703 273.528 301.801 274.926C301.801 274.926 296.616 284.769 326.076 302.284C329.207 299.399 344.833 284.981 372.975 259.014" fill="url(#paint0_linear_501_5)"/>
<path d="M230.328 296.813L124.16 353.547L161.069 373.575L262.06 310.328" fill="url(#paint1_linear_501_5)"/>
<path d="M171.67 265.04C106.102 298.372 69.6743 316.885 62.3931 320.586C62.3931 320.586 81.368 322.473 110.435 338.531C117.126 334.997 150.598 317.322 210.836 285.505" fill="url(#paint2_linear_501_5)"/>
<path d="M213.268 241.616C237.908 250.862 251.589 256.005 254.327 257.033C254.327 257.033 256.045 258.147 254.946 260.814C254.312 262.344 250.919 264.544 250.919 264.544C247.373 266.613 219.013 283.13 215.467 285.192C213.53 286.059 211.469 286.613 209.358 286.846C206.525 287.006 201.785 284.711 201.785 284.711C199.579 283.436 188.577 277.061 168.765 265.579L213.268 241.616Z" fill="#34323D"/>
<path d="M213.843 239.7C237.383 249.332 250.46 254.679 253.074 255.75C253.074 255.75 255.827 257.251 255.099 259.291C254.312 260.799 253.089 262.045 251.589 262.854C248.036 264.894 219.602 281.25 216.049 283.29C214.112 284.157 212.052 284.718 209.94 284.944C207.108 285.112 202.36 282.81 202.36 282.81C200.278 281.629 189.851 275.706 171.095 265.04L213.843 239.7Z" fill="#435950"/>
<path d="M121.065 293.673C119.529 294.328 117.745 293.898 116.675 292.609C116.675 292.609 115.903 292.463 115.903 289.09C115.903 273.44 115.903 148.279 115.903 132.629C115.99 129.89 117.236 127.318 119.333 125.555C123.162 122.866 127.16 120.426 131.296 118.233C142.887 111.544 200.817 78.081 305.099 17.85C306.271 17.2599 306.927 16.9247 307.058 16.8591C308.412 16.1816 310.065 16.6041 310.931 17.85C311.441 18.717 311.732 19.6933 311.783 20.6987C311.856 22.338 311.783 38.1553 311.783 38.1553C311.783 52.2313 311.783 164.883 311.783 178.959C311.791 181.691 310.64 184.299 308.623 186.143C271.11 207.65 158.578 272.165 121.065 293.673Z" fill="#334C42"/>
<path d="M119.099 270.023C119.099 188.999 119.099 143.988 119.099 134.982C119.099 130.494 119.718 127.995 123.221 126.123C141.555 115.493 288.192 30.4834 306.519 19.8609C307.589 19.0594 309.111 19.2853 309.905 20.3563C310.218 20.7789 310.385 21.2889 310.385 21.8134C310.356 31.0736 310.203 77.3597 309.926 160.665L119.099 270.023Z" fill="#9A6CFF"/>
<path d="M158.673 338.531C160.341 340.148 162.365 341.365 164.571 342.093C168.437 343.47 181.23 348.483 181.23 348.483C181.23 348.483 190.281 352.184 192.618 351.616C194.963 351.055 165.976 338.531 165.976 338.531C164.513 338.531 160.129 338.531 158.673 338.531Z" fill="#34323D"/>
<path d="M190.339 351.244C193.019 351.951 195.873 351.63 198.327 350.341C204.137 347.39 204.756 343.638 203.46 340.549C202.164 337.467 187.048 330.56 180.422 329.54C176.345 328.95 172.194 329.307 168.284 330.604C166.202 331.274 164.221 332.221 162.401 333.438C161.192 334.261 157.392 336.534 158.658 338.458C158.979 338.837 159.423 339.084 159.911 339.165C164.862 340.542 169.799 342.093 174.626 343.908C177.379 344.957 180.131 346.166 182.774 347.492C184.529 348.425 186.269 349.525 188.067 350.363C188.803 350.72 189.56 351.011 190.339 351.244Z" fill="#334C42"/>
<path d="M189.167 320.746C189.167 322.502 189.167 323.478 189.167 323.675C189.167 323.675 189.167 324.134 190.281 324.651L217.797 335.667C218.503 336.01 219.326 336.01 220.04 335.667C221.154 335.077 325.953 274.467 325.953 274.467C325.953 274.467 326.462 274.154 326.076 272.872C325.967 272.828 325.421 272.617 324.445 272.223" fill="#2F2E36"/>
<path d="M189.305 321.023L199.375 326.028C201.195 326.859 215.751 333.467 217.571 334.29C218.226 334.713 219.042 334.808 219.777 334.553C220.957 334.094 325.69 273.659 325.69 273.659C325.901 273.447 325.996 273.149 325.931 272.857C325.931 272.857 325.931 272.61 325.406 272.376L298 259.189C297.41 258.912 296.733 258.876 296.121 259.095C295.349 259.51 189.909 319.989 189.909 319.989C189.793 320.193 188.876 320.484 189.305 321.023Z" fill="#334C42"/>
<path d="M60.2088 176.169C60.2015 179.433 62.8518 182.092 66.1139 182.092C67.1114 182.092 68.0871 181.844 68.9535 181.371C74.6111 178.281 119.864 153.612 125.522 150.523C127.422 149.488 128.602 147.492 128.602 145.321C128.602 140.928 128.602 105.803 128.602 101.41C128.609 98.1459 125.958 95.4939 122.696 95.4866C121.655 95.4866 120.629 95.7561 119.726 96.2807C114.075 99.552 68.8225 125.7 63.1649 128.972C61.3373 130.028 60.2088 131.973 60.2088 134.086C60.2088 142.509 60.2088 171.957 60.2088 176.169Z" fill="#68E1FD"/>
<path d="M128.602 134.502V162.909L116.522 152.038" fill="#68E1FD"/>
<path d="M294.971 44.9966C298.502 46.5339 299.944 51.051 298.189 55.0873C296.434 59.1236 292.153 61.149 288.622 59.6117C285.083 58.0744 283.648 53.5573 285.403 49.521C287.158 45.4847 291.439 43.4593 294.971 44.9966Z" fill="#FFE427"/>
<path d="M152.782 225.828L163.282 219.686L163.377 169.05L152.782 175.178V225.828Z" fill="#FFE427"/>
<path d="M170.228 216L181.23 209.61V150.355L170.418 156.468L170.228 216Z" fill="#FFE427"/>
<path d="M188.002 206.062L197.81 200.364V134.502L188.177 140.367L188.002 206.062Z" fill="#FFE427"/>
<path d="M294.985 65.9357C298.517 67.473 299.958 71.9974 298.204 76.0337C296.449 80.07 292.16 82.0954 288.629 80.5581C285.097 79.0209 283.656 74.4964 285.411 70.4601C287.165 66.4239 291.454 64.3984 294.985 65.9357Z" fill="#FFE427"/>
<path d="M296.216 86.8749C299.412 89.0169 300.024 93.7234 297.578 97.3809C295.131 101.038 290.558 102.27 287.355 100.12C284.151 97.9783 283.539 93.279 285.986 89.6216C288.432 85.9641 293.012 84.7329 296.216 86.8749Z" fill="#FFE427"/>
<path d="M230.597 163.776C222.253 161.124 215.976 154.144 212.926 144.264C210.144 134.319 210.414 123.77 213.697 113.978C220.891 91.3119 239.568 77.6949 256.242 82.9989C272.916 88.2956 280.328 110.124 273.076 132.797C270.113 142.705 264.237 151.499 256.213 158.027C251.043 162.282 244.599 164.701 237.908 164.905C235.425 164.912 232.964 164.526 230.597 163.776ZM225.151 117.548C222.595 125.023 222.34 133.095 224.423 140.724C226.279 146.763 229.76 150.88 234.245 152.301C238.73 153.714 243.871 152.366 248.939 148.497C255.026 143.47 259.467 136.731 261.688 129.147C266.669 113.46 262.496 97.4902 252.608 94.3937C251.436 94.0222 250.213 93.84 248.975 93.84C239.815 93.84 229.541 103.727 225.151 117.548Z" fill="#68E1FD"/>
<path d="M153.707 232.035C153.715 233.376 154.807 234.454 156.139 234.447C156.554 234.44 156.962 234.33 157.326 234.126C161.833 231.547 197.904 210.936 202.412 208.364C203.162 207.927 203.62 207.133 203.628 206.266C203.62 204.933 202.535 203.847 201.196 203.854C200.788 203.854 200.38 203.964 200.023 204.16C195.509 206.739 159.438 227.365 154.931 229.944C154.181 230.374 153.707 231.168 153.707 232.035Z" fill="#FFE427"/>
<path d="M143.885 151.434C143.885 152.847 145.028 153.991 146.441 153.991C146.892 153.991 147.336 153.874 147.722 153.648C152.688 150.778 192.393 127.835 197.351 124.965C198.145 124.506 198.633 123.66 198.633 122.75C198.633 120.921 198.633 106.32 198.633 104.499C198.633 103.086 197.482 101.934 196.07 101.934C195.625 101.934 195.181 102.058 194.795 102.284C189.83 105.147 150.118 128.068 145.152 130.939C144.358 131.398 143.878 132.25 143.885 133.168C143.885 136.818 143.885 149.605 143.885 151.434Z" fill="#FFE427"/>
<path d="M157.442 130.057C160.843 131.136 162.51 135.463 161.156 139.725C159.801 143.988 155.95 146.567 152.549 145.481C149.142 144.403 147.482 140.075 148.829 135.813C150.183 131.551 154.035 128.972 157.442 130.057Z" fill="white"/>
<path d="M192.909 111.981C193.405 111.697 193.572 111.063 193.281 110.568C192.99 110.073 192.356 109.905 191.861 110.196C188.963 111.828 165.758 124.877 162.852 126.509C162.357 126.793 162.19 127.427 162.481 127.923C162.772 128.418 163.406 128.586 163.901 128.294C163.901 128.294 190.011 113.613 192.909 111.981Z" fill="#7F47DD"/>
<path d="M183.022 125.278C183.509 124.994 183.677 124.36 183.393 123.864C183.102 123.369 182.468 123.201 181.973 123.493C180.167 124.498 165.743 132.585 163.937 133.591C163.45 133.882 163.282 134.516 163.566 135.012C163.857 135.507 164.491 135.675 164.986 135.383C164.986 135.383 181.216 126.291 183.022 125.278Z" fill="#7F47DD"/>
<path d="M272.173 133.962L265.001 113.497L252.841 121.14L258.812 136.979L260.261 141.634L272.173 133.962Z" fill="#FFE427"/>
<path d="M261.441 140.061C262.336 137.773 261.724 135.172 259.911 133.511C260.428 132.068 260.727 130.553 260.807 129.023C260.829 128.804 260.734 128.593 260.559 128.462C260.341 128.097 259.868 127.974 259.504 128.199C259.358 128.28 259.249 128.411 259.183 128.571C258.841 129.642 258.55 130.728 258.273 131.835C257.989 132.644 257.756 133.467 257.574 134.312C257.399 133.591 257.203 132.935 256.999 132.177C256.984 132.083 256.948 131.995 256.904 131.915C256.882 131.857 256.737 131.398 256.722 131.34C256.402 130.028 256.023 128.731 255.579 127.456C255.579 127.405 255.579 127.376 255.579 127.376C255.535 127.252 255.448 127.15 255.332 127.085C255.361 130.953 255.739 134.815 256.46 138.618C256.977 140.177 257.596 141.7 258.317 143.172C258.375 143.274 258.455 143.361 258.55 143.419C258.688 143.849 258.827 144.264 259.009 144.672C259.009 144.68 259.009 144.709 259.009 144.76C259.074 144.986 259.11 145.117 259.118 145.139C259.293 145.525 259.737 145.692 260.115 145.518C260.283 145.437 260.414 145.306 260.494 145.139C261.004 145.474 261.87 145.139 261.644 144.483C262.052 144.41 262.322 144.024 262.249 143.616C262.241 143.572 262.227 143.529 262.212 143.492C262.059 142.807 261.521 140.403 261.441 140.061Z" fill="#FCBF81"/>
<path d="M275.61 119.18C273.047 116.877 270.608 114.429 268.307 111.858C268.227 111.777 268.132 111.719 268.03 111.683C267.601 111.195 267.142 110.736 266.654 110.306C266.348 110.014 265.86 110.022 265.562 110.328C265.38 110.524 265.314 110.794 265.372 111.049C265.758 112.776 266.647 114.349 267.921 115.573C267.673 116.069 267.397 116.622 267.193 117.176C267.317 117.22 267.397 117.344 267.397 117.475C267.382 117.744 267.324 118.014 267.215 118.262C267.171 118.437 267.098 118.604 266.996 118.757C266.952 118.823 266.894 118.866 266.821 118.896C266.872 119.624 267.251 120.294 267.848 120.71C267.732 121.46 267.892 122.232 268.307 122.874C268.307 122.874 268.336 122.903 268.387 122.939C268.46 122.939 268.503 122.939 268.511 122.939C269.581 123.223 270.63 123.58 271.649 124.017C271.802 124.119 271.838 124.338 271.729 124.491C271.707 124.527 271.678 124.557 271.649 124.578C272.443 124.717 273.251 124.804 274.052 124.841C274.234 124.855 274.416 124.797 274.547 124.673C274.583 124.695 274.874 124.848 274.911 124.87C275.29 125.074 275.763 124.928 275.967 124.549C276.025 124.447 276.061 124.323 276.061 124.207C276.076 124.112 276.076 124.025 276.061 123.93C276.098 123.952 276.374 124.127 276.404 124.149C276.411 124.637 276.804 125.03 277.292 125.03C277.357 125.023 277.416 125.016 277.481 125.008C277.94 124.935 278.268 124.52 278.238 124.054C278.231 123.937 278.202 123.821 278.151 123.711C278.238 123.784 278.886 124.345 278.967 124.411C279.039 124.498 279.17 124.506 279.258 124.425C279.309 124.382 279.331 124.316 279.323 124.251C279.331 124.214 279.331 124.185 279.323 124.149C279.76 124.578 280.168 125.037 280.532 125.526C285.898 130.101 280.918 124.003 280.765 123.835C281.151 123.602 276.047 119.566 275.61 119.18ZM276.877 124.302C277.11 124.294 277.321 124.185 277.467 124.003C277.569 124.054 277.692 124.017 277.743 123.915C277.751 123.908 277.751 123.901 277.758 123.894C277.882 124.119 277.802 124.418 277.569 124.549C277.532 124.564 277.496 124.578 277.452 124.593C277.212 124.673 276.957 124.542 276.877 124.302Z" fill="#FCBF81"/>
<path d="M277.11 122.291C276.491 121.657 275.472 121.642 274.831 122.262C274.824 122.269 274.809 122.283 274.794 122.291C274.62 121.897 274.474 121.497 274.358 121.081C274.066 120.192 273.12 119.704 272.224 119.996C271.394 120.258 270.906 121.125 271.096 121.977C271.489 123.639 272.392 125.139 273.673 126.269C275.006 127.238 276.506 127.959 278.1 128.389C279.032 128.615 279.964 128.039 280.19 127.114C280.241 126.888 280.255 126.662 280.219 126.436C280.226 126.422 280.314 126.298 280.328 126.283C280.78 125.482 280.518 124.469 279.738 123.988C278.763 123.595 277.867 123.019 277.11 122.291Z" fill="#FCBF81"/>
<path d="M270.695 120.666C270.717 120.622 270.717 120.564 270.695 120.52C269.647 119.529 269.071 118.976 268.955 118.866C268.707 118.619 268.445 118.386 268.22 118.123C268.001 117.861 266.996 115.755 268.678 116.185C269.188 116.309 270.054 117.285 270.506 117.642C270.957 117.999 271.664 118.633 272.224 119.143C272.428 119.318 272.719 119.034 272.53 118.837C270.972 117.46 269.632 116.36 269.312 116.083C268.787 115.69 268.263 115.26 267.659 115.785C267.2 116.178 267.055 116.826 267.302 117.38C267.178 117.934 266.749 118.451 266.836 119.049C266.989 119.624 267.324 120.134 267.783 120.52C267.812 120.542 268.016 120.753 268.045 120.783C268.03 120.819 268.03 120.855 268.045 120.892C268.045 121.577 267.754 122.393 268.402 122.859C268.678 123.034 268.977 123.165 269.297 123.245C269.45 123.296 270.681 123.704 270.833 123.755C270.935 123.784 271.045 123.733 271.081 123.631C271.081 123.624 271.081 123.617 271.081 123.617C271.948 125.081 273.316 126.174 274.933 126.684C275.144 126.793 275.253 126.385 274.991 126.298C272.472 125.577 270.732 123.289 270.695 120.666ZM267.368 118.429C267.368 118.262 267.491 118.094 267.564 117.941C268.365 118.968 269.29 119.894 270.317 120.695C270.317 120.695 270.317 120.79 270.317 120.834C270.244 120.79 270.156 120.79 270.091 120.834C269.326 121.62 268.139 120.353 267.688 119.799C267.317 119.449 267.193 118.91 267.368 118.429ZM268.372 121.977C268.343 121.686 268.343 121.387 268.372 121.096C268.962 121.54 269.749 121.824 270.287 121.285C270.353 122.014 270.55 122.728 270.877 123.384C270.324 123.158 269.639 122.997 269.035 122.75C268.693 122.67 268.409 122.356 268.372 121.977Z" fill="#34323D"/>
<path d="M298.677 136.964C298.087 135.893 277.095 121.249 275.887 119.515C272.741 123.019 272.071 128.097 274.19 132.301C274.19 132.301 285.498 147.441 291.796 149.131" fill="#22B68E"/>
<path d="M264.812 139.747C264.812 139.747 271.066 154.158 275.566 152.985C280.066 151.82 280.561 139.47 290.82 136.469C301.087 133.467 293.682 169.502 280.314 169.67C266.945 169.837 259.154 159.55 255.499 147.099C257.363 145.627 258.732 141.219 264.812 139.747Z" fill="#22B68E"/>
<path d="M290.478 276.894C290.252 277.833 289.553 278.584 288.636 278.875C288.476 279.101 288.243 279.254 287.973 279.312C285.986 279.618 283.961 279.451 282.046 278.832C279.629 278.285 270.134 275.487 273.214 281.913C274.991 282.963 276.957 283.83 278.719 284.74C279.738 285.25 280.75 285.76 281.784 286.227C282.338 286.54 282.942 286.766 283.576 286.882C284.952 286.984 288.046 285.731 288.155 286.059C288.265 286.387 288.76 288.908 288.76 288.908C288.76 288.908 297.41 291.443 297.315 285.782C297.359 285.039 295.269 274.73 295.269 274.73C294.308 275.167 290.959 276.675 290.478 276.894Z" fill="#E55600"/>
<path d="M299.616 266.694C299.616 266.694 291.017 263.663 289.007 263.677C289.007 263.677 283.714 264.646 286.932 268.085C286.932 268.085 296.121 273.09 297.286 273.178C298.458 273.258 301.182 272.172 301.276 272.464C301.371 272.748 301.815 274.941 301.815 274.941C301.815 274.941 309.337 277.141 309.257 272.187C309.257 271.539 307.429 262.548 307.429 262.548" fill="#E55600"/>
<path d="M299.252 173.713C299.063 169.466 302.004 171.957 301.706 170.289C299.121 156.759 280.547 174.595 280.547 174.595C279.789 175.316 280.037 179.513 279.957 180.474C279.243 188.445 279.017 194.842 278.908 196.445C277.765 223.351 281.114 249.762 284.595 276.384C289.16 280.362 292.022 281.418 298.611 278.088C298.611 260.486 298.444 242.884 298.153 225.289C298.153 224.757 298.153 224.232 298.138 223.708C297.424 201.435 297.796 184.773 299.252 173.713Z" fill="#FFE427"/>
<path d="M307.371 233.274C306.504 223.227 306.752 213.165 306.628 203.104C305.376 190.631 304.109 174.777 304.109 174.777C303.082 175.061 294.825 177.363 293.791 177.655C293.791 177.655 287.092 264.588 297.381 268.275L309.257 265.266C309.257 265.266 309.242 260.158 309.176 253.055C308.747 246.432 307.939 239.824 307.371 233.274Z" fill="#FFE427"/>
<path d="M304.291 168.992C303.541 163.47 303.541 157.867 304.291 152.344C304.924 147.004 304.961 141.481 301.677 136.928C296.929 134.174 290.325 136.636 286.328 139.58C280.918 143.572 279.105 170.675 279.17 179.054C279.17 180.241 286.35 180.846 287.151 180.904C290.879 181.247 294.629 180.963 298.262 180.074C300.854 179.374 304.072 178.092 304.8 175.2C304.88 174.872 304.931 174.529 304.953 174.187C304.895 172.438 304.669 170.697 304.291 168.992Z" fill="#22B68E"/>
<path d="M297.199 181.815C296.988 181.968 296.864 182.208 296.878 182.471C301.771 197.472 293.66 212.983 295.226 228.276C296.048 236.327 297.483 244.268 297.978 252.377C298.466 260.989 298.378 269.615 297.716 278.212C297.643 279.181 299.092 279.094 299.216 278.147C299.878 269.55 299.966 260.916 299.478 252.312C298.983 243.765 297.315 235.38 296.631 226.877C295.335 211.832 303.097 196.838 298.255 182.004C298.014 181.662 297.541 181.575 297.199 181.815Z" fill="#34323D"/>
<path d="M279.491 169.684C279.491 170.194 279.323 173.356 279.28 173.815C285.28 172.438 289.692 164.854 290.289 158.479C290.413 157.568 288.913 157.568 288.818 158.537C288.352 163.841 284.624 168.293 279.491 169.684Z" fill="#06825E"/>
<path d="M289.131 135.565C290.398 140.891 299.558 135.835 301.968 131.915C304.371 127.995 300.978 119.733 292.43 121.62C291.978 121.715 287.864 130.232 289.131 135.565Z" fill="#FCBF81"/>
<path d="M292.503 122.786C292.437 124.44 293.362 125.977 294.854 126.684C297.33 127.704 299.376 128.418 299.187 129.576C298.997 130.728 294.658 129.234 294.549 131.871C294.476 133.656 294.643 135.449 295.044 137.19C295.269 138.56 302.944 134.822 305.696 128.127C308.441 121.438 302.325 119.391 302.019 119.318C301.153 117.948 299.798 116.965 298.226 116.571C295.211 115.785 294.301 116.928 294.301 116.928C292.918 116.01 291.097 116.134 289.845 117.227C287.77 118.779 287.34 121.722 288.891 123.799C289.342 124.396 289.925 124.884 290.602 125.212C290.981 124.724 292.124 123.274 292.503 122.786Z" fill="#34323D"/>
<path d="M343.988 189.589C345.925 189.48 347.854 189.858 349.602 190.689C351.393 191.702 352.791 193.29 353.563 195.206C354.429 197.02 354.801 199.607 356.599 200.707C357.305 201.078 357.91 201.61 358.376 202.251C359.264 203.505 359.468 205.122 358.929 206.557C358.128 208.153 354.801 209.129 353.301 208.845" fill="#8FDB5E"/>
<path d="M342.517 189.778C337.886 190.194 334.042 193.516 332.957 198.04C332.396 200.255 332.375 202.572 332.892 204.794C333.314 206.586 334.377 209.697 336.561 209.836C339.517 210.011 340.464 207.249 341.403 204.976C342.335 202.703 343.318 200.197 345.677 199.301C348.073 198.383 350.782 198.995 352.558 200.845C350.549 198.63 344.527 191.993 342.517 189.778Z" fill="#1E8C0E"/>
<path d="M351.044 194.609C350.068 193.093 348.903 191.709 347.578 190.485C343.449 188.489 338.294 190.317 335.2 193.815C335.615 193.938 336.19 193.96 336.576 194.077C338.396 194.776 340.013 195.92 341.28 197.406C343.093 199.417 344.512 201.88 346.122 204.022C348.736 207.497 352.201 210.36 356.672 208.277C359.534 206.885 357.291 203.417 356.039 201.792C354.247 199.483 352.762 196.962 351.044 194.609Z" fill="#8FDB5E"/>
<path d="M370.536 172.052C370.536 172.052 379.797 171.324 379.615 185.982C379.615 185.982 365.613 190.988 368.613 182.165" fill="#1E8C0E"/>
<path d="M378.334 178.216C377.402 174.354 373.936 171.637 369.96 171.666C363.618 171.834 358.871 178.274 357.801 185.873C357.276 190.507 359.009 195.119 362.461 198.259C362.766 198.521 365.213 200.612 365.519 200.874C371.154 198.696 369.065 190.536 369.203 186.478C369.108 182.019 374.111 178.77 378.334 178.216Z" fill="#8FDB5E"/>
<path d="M392.27 188.991C391.076 186.602 388.862 184.882 386.249 184.329C385.724 185.334 381.552 193.37 381.035 194.376C381.035 194.376 388.804 180.78 385.63 191.25C385.63 191.25 392.918 213.457 394.345 197.844C394.374 197.545 394.389 197.253 394.418 196.947C394.28 194.179 393.552 191.461 392.27 188.991Z" fill="#1E8C0E"/>
<path d="M352.544 238.243C353.228 241.922 354.262 245.529 355.638 249.004C357.014 252.465 357.975 256.909 361.456 258.861C365.038 260.807 369.341 260.858 372.975 259.014C375.96 257.186 377.03 253.04 378.115 249.958C379.419 246.155 380.314 242.228 380.788 238.243C384.086 212.597 357.582 223.103 357.582 223.103C356.57 226.134 350.621 227.642 352.544 238.243Z" fill="#68E1FD"/>
<path d="M377.125 224.655C377.125 226.688 372.574 228.334 366.961 228.334C361.347 228.334 356.796 226.688 356.796 224.655C356.796 222.63 361.347 220.983 366.961 220.983C372.574 220.983 377.125 222.63 377.125 224.655Z" fill="#34323D"/>
<path d="M362.876 195.075C361.805 189.997 363.844 184.758 368.075 181.742C368.846 181.174 368.075 179.87 367.317 180.445C360.822 185.166 359.563 193.232 363.356 200.102C364.718 202.149 365.868 204.328 366.779 206.616C367.718 209.668 366.669 211.883 365.242 214.185C365.322 211.912 364.514 209.697 362.985 208.014C361.296 206.448 358.857 206.186 356.716 205.486C352.667 204.109 349.107 201.807 348.459 197.224C348.306 196.277 346.864 196.678 347.017 197.625C347.643 201.166 349.981 204.168 353.257 205.639C355.216 206.477 357.226 207.177 359.286 207.73C361.092 208.422 362.526 209.829 363.262 211.621C364.223 213.836 363.56 215.351 363.029 217.5C362.322 220.254 361.208 222.673 363.123 225.318C363.684 226.09 364.995 225.318 364.419 224.56C361.376 220.364 366.232 216.306 367.885 212.75C368.963 210.295 368.926 207.49 367.783 205.056C366.407 201.632 363.662 198.754 362.876 195.075Z" fill="#1E8C0E"/>
<path d="M376.12 205.909C376.259 207.475 376.55 209.02 376.987 210.521C377.496 211.796 377.788 213.144 377.839 214.513C377.402 216.466 376.026 218.069 374.169 218.805C371.504 219.795 369.48 222.018 368.752 224.772C368.693 225.18 368.985 225.566 369.4 225.617C369.735 225.66 370.062 225.478 370.193 225.165C371.679 219.664 379.273 220.517 379.324 214.513C379.324 211.584 377.802 208.845 377.62 205.909C377.307 200.794 380.649 196.277 386.139 197.297C387.071 197.457 387.486 196.015 386.532 195.847C380.11 194.718 375.734 199.687 376.12 205.909Z" fill="#1E8C0E"/>
<path d="M380.824 184.758C380.212 185.006 379.615 185.29 379.04 185.625C367.885 193.88 375.807 212.561 377.526 212.408C383.205 211.941 382.615 208.597 384.53 199.235C385.2 194.871 388.986 191.673 393.399 191.745C393.1 190.82 392.729 189.924 392.27 189.064C389.78 184.467 385.258 183.396 380.824 184.758Z" fill="#8FDB5E"/>
<path d="M380.373 190.441C376.244 197.319 377.234 205.209 377.773 212.736C377.839 213.705 379.339 213.705 379.273 212.736C378.873 207.235 378.115 201.909 379.586 196.569C380.314 193.953 381.181 191.061 383.278 189.159C385.579 187.119 388.884 186.645 391.666 187.964C391.608 187.884 391.156 187.272 391.105 187.192C390.632 186.82 390.239 186.39 389.824 185.953C386.052 185.363 382.302 187.148 380.373 190.441Z" fill="#1E8C0E"/>
<defs>
<linearGradient id="paint0_linear_501_5" x1="331.428" y1="275.298" x2="355.103" y2="257.309" gradientUnits="userSpaceOnUse">
<stop stop-color="#ACF4E6"/>
<stop offset="1" stop-color="#8ECDC6"/>
</linearGradient>
<linearGradient id="paint1_linear_501_5" x1="154.297" y1="356.709" x2="209.761" y2="324.244" gradientUnits="userSpaceOnUse">
<stop stop-color="#ACF4E6"/>
<stop offset="1" stop-color="#8ECDC6"/>
</linearGradient>
<linearGradient id="paint2_linear_501_5" x1="123.949" y1="311.931" x2="171.595" y2="278.225" gradientUnits="userSpaceOnUse">
<stop stop-color="#ACF4E6"/>
<stop offset="1" stop-color="#8ECDC6"/>
</linearGradient>
</defs>
</svg>
