<svg width="1431" height="109" viewBox="0 0 1431 109" fill="none" xmlns="http://www.w3.org/2000/svg">
<path d="M1173.04 101.41C1079.64 95.58 989.078 81.61 869.693 46.41C823.073 32.44 748.575 12.31 711.405 6.91998C674.235 1.52998 628.56 -1.66002 592.492 1.08998C576.427 2.29998 556.898 2.62998 513.585 9.22998C470.745 16.16 421.92 27.49 388.53 36.4C323.483 53.89 239.062 60.49 177.48 61.26C41.4 63.02 -72 27.38 -72 27.38V109H1503V70.83C1503 70.83 1421.89 92.17 1335.73 99.1C1250.21 105.7 1210.21 103.72 1173.04 101.41Z" fill="white"/>
</svg>
